<svg width="24" height="24" viewBox="0 0 24 24" fill="none" xmlns="http://www.w3.org/2000/svg">
<path fill-rule="evenodd" clip-rule="evenodd" d="M12 2C6.47715 2 2 6.47715 2 12C2 17.5228 6.47715 22 12 22H17C18.5531 22 19.3297 22 19.9423 21.7463C20.759 21.408 21.408 20.759 21.7463 19.9423C22 19.3297 22 18.5531 22 17V12C22 6.47715 17.5228 2 12 2ZM7.55556 10.8889C7.55556 10.2752 8.05302 9.77778 8.66667 9.77778H15.3333C15.947 9.77778 16.4444 10.2752 16.4444 10.8889C16.4444 11.5025 15.947 12 15.3333 12H8.66667C8.05302 12 7.55556 11.5025 7.55556 10.8889ZM10.8889 15.3333C10.8889 14.7197 11.3864 14.2222 12 14.2222H15.3333C15.947 14.2222 16.4444 14.7197 16.4444 15.3333C16.4444 15.947 15.947 16.4444 15.3333 16.4444H12C11.3864 16.4444 10.8889 15.947 10.8889 15.3333Z" fill="#E97A0F"/>
</svg>
