<svg width="24" height="24" viewBox="0 0 24 24" fill="none" xmlns="http://www.w3.org/2000/svg">
<path d="M6.97961 4.98552L7.36303 5.44702L7.36303 5.44702L6.97961 4.98552ZM17.0204 4.98552L16.637 5.44702L16.637 5.44702L17.0204 4.98552ZM18.3061 6.05369L18.6895 5.59218L18.6895 5.59218L18.3061 6.05369ZM5.6939 6.05369L5.31047 5.59218L5.31047 5.59218L5.6939 6.05369ZM14.6143 22C14.6143 22.3314 14.8829 22.6 15.2143 22.6C15.5457 22.6 15.8143 22.3314 15.8143 22H14.6143ZM8.18571 22C8.18571 22.3314 8.45434 22.6 8.78571 22.6C9.11709 22.6 9.38571 22.3314 9.38571 22H8.18571ZM20.4 11.7308V17.0152H21.6V11.7308H20.4ZM15.8571 21.4H8.14286V22.6H15.8571V21.4ZM3.6 17.0152V11.7308H2.4V17.0152H3.6ZM6.07732 6.5152L7.36303 5.44702L6.59619 4.52401L5.31047 5.59218L6.07732 6.5152ZM16.637 5.44702L17.9227 6.5152L18.6895 5.59218L17.4038 4.52401L16.637 5.44702ZM7.36303 5.44702C8.57264 4.44208 9.43803 3.72452 10.1766 3.2517C10.9007 2.78814 11.4437 2.6 12 2.6V1.4C11.1294 1.4 10.3601 1.70944 9.52963 2.24105C8.71365 2.76342 7.78228 3.53861 6.59619 4.52401L7.36303 5.44702ZM17.4038 4.52401C16.2177 3.53861 15.2863 2.76341 14.4704 2.24105C13.6399 1.70944 12.8706 1.4 12 1.4V2.6C12.5563 2.6 13.0993 2.78814 13.8234 3.2517C14.562 3.72452 15.4274 4.44208 16.637 5.44702L17.4038 4.52401ZM8.14286 21.4C6.91422 21.4 6.05127 21.3988 5.39883 21.3138C4.76179 21.2308 4.41662 21.0775 4.17075 20.8392L3.33556 21.7008C3.84285 22.1925 4.48034 22.4042 5.24377 22.5037C5.9918 22.6012 6.94713 22.6 8.14286 22.6V21.4ZM2.4 17.0152C2.4 18.1726 2.39865 19.103 2.49983 19.8325C2.60369 20.5812 2.82566 21.2066 3.33556 21.7008L4.17075 20.8392C3.9275 20.6034 3.77289 20.2763 3.68845 19.6676C3.60135 19.0397 3.6 18.2076 3.6 17.0152H2.4ZM20.4 17.0152C20.4 18.2076 20.3986 19.0397 20.3115 19.6676C20.2271 20.2763 20.0725 20.6034 19.8293 20.8392L20.6644 21.7008C21.1743 21.2066 21.3963 20.5812 21.5002 19.8325C21.6014 19.103 21.6 18.1726 21.6 17.0152H20.4ZM15.8571 22.6C17.0529 22.6 18.0082 22.6012 18.7562 22.5037C19.5197 22.4042 20.1572 22.1925 20.6644 21.7008L19.8293 20.8392C19.5834 21.0775 19.2382 21.2308 18.6012 21.3138C17.9487 21.3988 17.0858 21.4 15.8571 21.4V22.6ZM21.6 11.7308C21.6 10.0949 21.6135 9.08606 21.1892 8.19187L20.1051 8.70632C20.3865 9.29945 20.4 9.98263 20.4 11.7308H21.6ZM17.9227 6.5152C19.2916 7.65248 19.8223 8.11053 20.1051 8.70632L21.1892 8.19187C20.7661 7.30035 19.9715 6.65723 18.6895 5.59218L17.9227 6.5152ZM3.6 11.7308C3.6 9.98262 3.6135 9.29945 3.89495 8.70632L2.81081 8.19187C2.3865 9.08606 2.4 10.0949 2.4 11.7308H3.6ZM5.31047 5.59218C4.02853 6.65723 3.23386 7.30035 2.81081 8.19187L3.89495 8.70632C4.17766 8.11053 4.70841 7.65248 6.07732 6.5152L5.31047 5.59218ZM10.0714 15.1228H13.9286V13.9228H10.0714V15.1228ZM14.6143 15.769V22H15.8143V15.769H14.6143ZM8.18571 15.769V22H9.38571V15.769H8.18571ZM13.9286 15.1228C14.3251 15.1228 14.6143 15.4296 14.6143 15.769H15.8143C15.8143 14.7318 14.9522 13.9228 13.9286 13.9228V15.1228ZM10.0714 13.9228C9.04777 13.9228 8.18571 14.7318 8.18571 15.769H9.38571C9.38571 15.4296 9.67493 15.1228 10.0714 15.1228V13.9228Z" fill="#8A8A8A"/>
</svg>
