<svg width="24" height="24" viewBox="0 0 24 24" fill="none" xmlns="http://www.w3.org/2000/svg">
<path d="M3.35288 8.44909C3 9.19275 3 10.0388 3 11.7308V17.0152C3 19.3651 3 20.54 3.75315 21.27C4.43657 21.9324 5.49795 21.9937 7.5 21.9994V15.7691C7.5 14.3926 8.65127 13.2767 10.0714 13.2767H13.9286C15.3487 13.2767 16.5 14.3926 16.5 15.7691V21.9994C18.5021 21.9937 19.5634 21.9324 20.2468 21.27C21 20.54 21 19.3651 21 17.0152V11.7308C21 10.0388 21 9.19275 20.6471 8.44909C20.2942 7.70544 19.6315 7.15485 18.3061 6.05369L17.0204 4.98552C14.6247 2.99517 13.4268 2 12 2C10.5731 2 9.3753 2.99517 6.97961 4.98552L5.6939 6.05369C4.36847 7.15485 3.70576 7.70544 3.35288 8.44909Z" fill="#E97A0F"/>
<path d="M13.9286 22V15.7691H10.0714V22H13.9286Z" fill="#E97A0F"/>
</svg>
