<svg width="24" height="24" viewBox="0 0 24 24" fill="none" xmlns="http://www.w3.org/2000/svg">
<path fill-rule="evenodd" clip-rule="evenodd" d="M12.3043 21.8763C14.1694 20.9089 20.6075 17.1127 20.6075 10.8037C20.6075 5.94157 16.6659 2 11.8037 2C6.94157 2 3 5.94157 3 10.8037C3 17.1127 9.43809 20.9089 11.3031 21.8763C11.6212 22.0412 11.9863 22.0412 12.3043 21.8763ZM11.8037 14.5768C13.8875 14.5768 15.5768 12.8875 15.5768 10.8037C15.5768 8.71995 13.8875 7.03071 11.8037 7.03071C9.71995 7.03071 8.03071 8.71995 8.03071 10.8037C8.03071 12.8875 9.71995 14.5768 11.8037 14.5768Z" stroke="#8A8A8A" stroke-width="1.2"/>
</svg>
